<?xml version="1.0" encoding="utf-8"?>

<!--
Licensed to the Apache Software Foundation (ASF) under one
or more contributor license agreements.  See the NOTICE file
distributed with this work for additional information
regarding copyright ownership.  The ASF licenses this file
to you under the Apache License, Version 2.0 (the
"License"); you may not use this file except in compliance
with the License.  You may obtain a copy of the License at

  http://www.apache.org/licenses/LICENSE-2.0

Unless required by applicable law or agreed to in writing,
software distributed under the License is distributed on an
"AS IS" BASIS, WITHOUT WARRANTIES OR CONDITIONS OF ANY
KIND, either express or implied.  See the License for the
specific language governing permissions and limitations
under the License.
-->

<!-- Generator: Adobe Illustrator 14.0.0, SVG Export Plug-In . SVG Version: 6.00 Build 43363)  -->
<!DOCTYPE svg PUBLIC "-//W3C//DTD SVG 1.1//EN" "http://www.w3.org/Graphics/SVG/1.1/DTD/svg11.dtd">
<svg version="1.1" xmlns="http://www.w3.org/2000/svg" xmlns:xlink="http://www.w3.org/1999/xlink" x="0px" y="0px" width="1103px"
	 height="1115px" viewBox="0 0 200 202" enable-background="new 0 0 1103 1115" xml:space="preserve">
<g id="背景">

		<polygon fill-rule="evenodd" clip-rule="evenodd" fill="none" stroke="#AAAAAA" stroke-width="10" stroke-linecap="round" stroke-linejoin="round" points="
		719,377 533,377 487,398 491,563 469,571 469,682 504,682 546,676 661,667 672,672 710,672 740,676 751,645 746,567 725,563
		719,510 	"/>

		<path fill-rule="evenodd" clip-rule="evenodd" fill="none" stroke="#AAAAAA" stroke-width="10" stroke-linecap="round" stroke-linejoin="round" d="
		M359,533V402l-7-76l36-18l333-10l76,65v315l-38,41h-49l-37,6H534l-81,31h-37c-33.5-0.5-56.5-54.5-57-70V533z"/>

		<path fill-rule="evenodd" clip-rule="evenodd" fill="none" stroke="#AAAAAA" stroke-width="10" stroke-linecap="round" stroke-linejoin="round" d="
		M252,571v44l11,39l16,41v71l7.5,27.5L290,811l11,13l16,1l447-4l48-10l51-45l7-25l8-70V370c1.5-12.5-4.5-24.5-11-32l-103-96l-25-15
		l-21-6l-392,17l-19,8l-17,24l-35,28l-4,10l4,38l-3,40v47l3,37l-3,40V571z"/>

		<path fill-rule="evenodd" clip-rule="evenodd" fill="none" stroke="#AAAAAA" stroke-width="10" stroke-linecap="round" stroke-linejoin="round" d="
		M259,133l63-8l52-13l57-19h49l241,6l69,26h51c18.5,2.5,27.5,6.5,37,16l82,121l16,28l9,20l11,37l11,21l25,37l7,122l11,80v24v73l6,30
		l-6,17L944,857l-93,45l-46,62l-17,10l-49,1c-17.5,1.5-37.5,20.5-43,35l-19,52l-18,12l-84,27c-5.5,1.5-21.5,6.5-27-13l-6-37
		c-2.5-8.5-3.5-22.5-27-23l-151-18c-15.5-1.5-30.5,5.5-50,18l-23,12c-17.5,8.5-41.5-2.5-49-30l-15-60v-35c0,0-49.5-86.5-55-90
		s-35-9-35-9l-38-65l-5-23l-33-60l-6-22l13-46v-89l2-43l-2-63l10-37l19-111l-3-27c0.5-8.5,5.5-30.5,24-36l29-6l25-15h46l17-10l16-22
		L259,133z"/>

		<polyline fill-rule="evenodd" clip-rule="evenodd" fill="none" stroke="#AAAAAA" stroke-width="10" stroke-linecap="round" stroke-linejoin="round" points="
		1112,523 990,523 967,530 878,530 	"/>

		<line fill-rule="evenodd" clip-rule="evenodd" fill="none" stroke="#AAAAAA" stroke-width="10" stroke-linecap="round" stroke-linejoin="round" x1="1030" y1="405" x2="1112" y2="406"/>

		<polyline fill-rule="evenodd" clip-rule="evenodd" fill="none" stroke="#AAAAAA" stroke-width="10" stroke-linecap="round" stroke-linejoin="round" points="
		1112,48 962,122 777.5,343.5 	"/>

		<polyline fill-rule="evenodd" clip-rule="evenodd" fill="none" stroke="#AAAAAA" stroke-width="10" stroke-linecap="round" stroke-linejoin="round" points="
		856,-7 856,10 848,31 797,81 788,93 763,186 706,298 	"/>

		<polyline fill-rule="evenodd" clip-rule="evenodd" fill="none" stroke="#AAAAAA" stroke-width="10" stroke-linecap="round" stroke-linejoin="round" points="
		559.5,303.5 565,270 547,207 422,-7 	"/>

		<polyline fill-rule="evenodd" clip-rule="evenodd" fill="none" stroke="#AAAAAA" stroke-width="10" stroke-linecap="round" stroke-linejoin="round" points="
		-10,1003 13,995 25,988 42,931 42,912 47,898 70,870 74,853 66,789 74,779 110,767 143,742 152,717 280,647 331,633 359.5,617.5
		"/>

		<polyline fill-rule="evenodd" clip-rule="evenodd" fill="none" stroke="#AAAAAA" stroke-width="10" stroke-linecap="round" stroke-linejoin="round" points="
		456,1115 449,1049 449,1022 467,986 466.5,977.5 455.5,868.5 460,842 460.5,754.5 	"/>

		<polyline fill-rule="evenodd" clip-rule="evenodd" fill="none" stroke="#AAAAAA" stroke-width="10" stroke-linecap="round" stroke-linejoin="round" points="
		1103,1115 1066,1044 1042,1011 1015,982 984,927 952,888 901,849 778,703 	"/>

		<line fill-rule="evenodd" clip-rule="evenodd" fill="none" stroke="#AAAAAA" stroke-width="10" stroke-linecap="round" stroke-linejoin="round" x1="1036.5" y1="768.5" x2="1112" y2="810"/>

		<line fill-rule="evenodd" clip-rule="evenodd" fill="none" stroke="#AAAAAA" stroke-width="10" stroke-linecap="round" stroke-linejoin="round" x1="878" y1="671" x2="1112" y2="682"/>

		<line fill-rule="evenodd" clip-rule="evenodd" fill="none" stroke="#AAAAAA" stroke-width="5" stroke-linecap="round" stroke-linejoin="round" x1="1019" y1="-7" x2="955" y2="129"/>

		<polyline fill-rule="evenodd" clip-rule="evenodd" fill="none" stroke="#AAAAAA" stroke-width="5" stroke-linecap="round" stroke-linejoin="round" points="
		-10,533 540,536 671,531 878,530 	"/>

		<polyline fill-rule="evenodd" clip-rule="evenodd" fill="none" stroke="#AAAAAA" stroke-width="5" stroke-linecap="round" stroke-linejoin="round" points="
		0,468 132,468 168,457 175,457 201,470 212,470 360,470 422,474 458,474 494,472 539,472 	"/>

		<polyline fill-rule="evenodd" clip-rule="evenodd" fill="none" stroke="#AAAAAA" stroke-width="5" stroke-linecap="round" stroke-linejoin="round" points="
		539,477 590,477 595,474 623,474 630,470 732,470 753,476 763,477 825,502 843,503 929,502 984.5,496.5 1037,500 1091,500
		1112,503 	"/>

		<polyline fill-rule="evenodd" clip-rule="evenodd" fill="none" stroke="#AAAAAA" stroke-width="5" stroke-linecap="round" stroke-linejoin="round" points="
		494,565 533.5,564.5 556,562 616,562 626,559 670,559 680,562 725,562 	"/>

		<polyline fill-rule="evenodd" clip-rule="evenodd" fill="none" stroke="#AAAAAA" stroke-width="5" stroke-linecap="round" stroke-linejoin="round" points="
		1030,405 971,405 885,435 683,435 589.5,435.5 539,439 523,439 372,439 254,439 	"/>

		<polyline fill-rule="evenodd" clip-rule="evenodd" fill="none" stroke="#AAAAAA" stroke-width="5" stroke-linecap="round" stroke-linejoin="round" points="
		360,618 389,602 403,600 469,602 591.5,601.5 625.5,591.5 652,589 699,588 987,589 	"/>

		<polyline fill-rule="evenodd" clip-rule="evenodd" fill="none" stroke="#AAAAAA" stroke-width="5" stroke-linecap="round" stroke-linejoin="round" points="
		716,377 748,377 778,344 	"/>

		<polyline fill-rule="evenodd" clip-rule="evenodd" fill="none" stroke="#AAAAAA" stroke-width="5" stroke-linecap="round" stroke-linejoin="round" points="
		-10,596 6,603 47,603 63,588 91,572 394,572 472,571 	"/>

		<polyline fill-rule="evenodd" clip-rule="evenodd" fill="none" stroke="#AAAAAA" stroke-width="5" stroke-linecap="round" stroke-linejoin="round" points="
		725,544 689,544 674,559 	"/>

		<polyline fill-rule="evenodd" clip-rule="evenodd" fill="none" stroke="#AAAAAA" stroke-width="5" stroke-linecap="round" stroke-linejoin="round" points="
		539,406 474.5,410.5 458,415 424.5,417.5 400.5,414.5 378,413 305.5,379.5 283.5,385.5 254,384 	"/>

		<polyline fill-rule="evenodd" clip-rule="evenodd" fill="none" stroke="#AAAAAA" stroke-width="5" stroke-linecap="round" stroke-linejoin="round" points="
		878,530 864,541 725,549 	"/>

		<polyline fill-rule="evenodd" clip-rule="evenodd" fill="none" stroke="#AAAAAA" stroke-width="5" stroke-linecap="round" stroke-linejoin="round" points="
		213,688 231,694 278,694 397,682 467,682 	"/>

		<line fill-rule="evenodd" clip-rule="evenodd" fill="none" stroke="#AAAAAA" stroke-width="5" stroke-linecap="round" stroke-linejoin="round" x1="469" y1="682" x2="460.5" y2="754.5"/>

		<polyline fill-rule="evenodd" clip-rule="evenodd" fill="none" stroke="#AAAAAA" stroke-width="5" stroke-linecap="round" stroke-linejoin="round" points="
		308,755 313,638 313,496 316,487 315.5,420.5 313,399 313,344 282,280 	"/>

		<polyline fill-rule="evenodd" clip-rule="evenodd" fill="none" stroke="#AAAAAA" stroke-width="5" stroke-linecap="round" stroke-linejoin="round" points="
		352,327 322,338 299,344 254,344 	"/>

		<polyline fill-rule="evenodd" clip-rule="evenodd" fill="none" stroke="#AAAAAA" stroke-width="5" stroke-linecap="round" stroke-linejoin="round" points="
		162,-7 206,13 240,48 287,120 294,175 312,193 312,206 324,219.5 330,280 346,298 352,327 	"/>

		<polyline fill-rule="evenodd" clip-rule="evenodd" fill="none" stroke="#AAAAAA" stroke-width="5" stroke-linecap="round" stroke-linejoin="round" points="
		332.5,-9 357,41 364,70 369,109 379,124 381,155 379,159 373,159 370,168 375,265 391,322 401,414 401,474 	"/>

		<polyline fill-rule="evenodd" clip-rule="evenodd" fill="none" stroke="#AAAAAA" stroke-width="5" stroke-linecap="round" stroke-linejoin="round" points="
		477,93 482,229 486,361 489,372 490,399 	"/>

		<line fill-rule="evenodd" clip-rule="evenodd" fill="none" stroke="#AAAAAA" stroke-width="5" stroke-linecap="round" stroke-linejoin="round" x1="560" y1="304" x2="556" y2="377"/>

		<polyline fill-rule="evenodd" clip-rule="evenodd" fill="none" stroke="#AAAAAA" stroke-width="5" stroke-linecap="round" stroke-linejoin="round" points="
		537,377 542,536 542,694 539,703 535,716 535,727 530,825 	"/>

		<polyline fill-rule="evenodd" clip-rule="evenodd" fill="none" stroke="#AAAAAA" stroke-width="5" stroke-linecap="round" stroke-linejoin="round" points="
		613,596 615,671 624,924 666,921 666,930 670,935 678,991 755,1061 766,1115 	"/>

		<line fill-rule="evenodd" clip-rule="evenodd" fill="none" stroke="#AAAAAA" stroke-width="5" stroke-linecap="round" stroke-linejoin="round" x1="600" y1="227" x2="604" y2="377"/>

		<polyline fill-rule="evenodd" clip-rule="evenodd" fill="none" stroke="#AAAAAA" stroke-width="5" stroke-linecap="round" stroke-linejoin="round" points="
		642,434 640,377 638,302 638,227 642,99 653,10 653,0 	"/>

		<polyline fill-rule="evenodd" clip-rule="evenodd" fill="none" stroke="#AAAAAA" stroke-width="5" stroke-linecap="round" stroke-linejoin="round" points="
		1037,769 951,709 951,677 870,622 678,623 	"/>

		<polyline fill-rule="evenodd" clip-rule="evenodd" fill="none" stroke="#AAAAAA" stroke-width="5" stroke-linecap="round" stroke-linejoin="round" points="
		653,11 670,58 668,85 668,110 664,129 664,146 668,176 667,199 667,227 672,369 664,369 664,377 672,609 678,622 680,725 	"/>

		<line fill-rule="evenodd" clip-rule="evenodd" fill="none" stroke="#AAAAAA" stroke-width="5" stroke-linecap="round" stroke-linejoin="round" x1="878" y1="671" x2="745" y2="671"/>

		<polyline fill-rule="evenodd" clip-rule="evenodd" fill="none" stroke="#AAAAAA" stroke-width="5" stroke-linecap="round" stroke-linejoin="round" points="
		1112,470 973,472 965,474 770,474 763,478 	"/>

		<line fill-rule="evenodd" clip-rule="evenodd" fill="none" stroke="#AAAAAA" stroke-width="5" stroke-linecap="round" stroke-linejoin="round" x1="845" y1="434" x2="842" y2="696"/>

		<polyline fill-rule="evenodd" clip-rule="evenodd" fill="none" stroke="#AAAAAA" stroke-width="5" stroke-linecap="round" stroke-linejoin="round" points="
		763,530 763,383 751,372 	"/>

		<polyline fill-rule="evenodd" clip-rule="evenodd" fill="none" stroke="#AAAAAA" stroke-width="5" stroke-linecap="round" stroke-linejoin="round" points="
		812.5,125 816,205 861,243 	"/>

		<polyline fill-rule="evenodd" clip-rule="evenodd" fill="none" stroke="#AAAAAA" stroke-width="5" stroke-linecap="round" stroke-linejoin="round" points="
		667,172 619,174 578,175 494,178 434,180 	"/>

		<polyline fill-rule="evenodd" clip-rule="evenodd" fill="none" stroke="#AAAAAA" stroke-width="5" stroke-linecap="round" stroke-linejoin="round" points="
		720,271 709,269 392,272 340,275 329,279 282,283 	"/>

		<polyline fill-rule="evenodd" clip-rule="evenodd" fill="none" stroke="#AAAAAA" stroke-width="5" stroke-linecap="round" stroke-linejoin="round" points="
		826,797 837,810 840.5,831.5 885.5,884.5 967.16,1014.78 	"/>

		<polyline fill-rule="evenodd" clip-rule="evenodd" fill="none" stroke="#AAAAAA" stroke-width="5" stroke-linecap="round" stroke-linejoin="round" points="
		888,1003 1025,917 1050,905 1064.5,888.5 	"/>

		<polyline fill-rule="evenodd" clip-rule="evenodd" fill="none" stroke="#AAAAAA" stroke-width="5" stroke-linecap="round" stroke-linejoin="round" points="
		1071,1051 1051,1065 1024,1081 987,1065 976,1051 961,1040 898,1017 861,959 851,935 837,923 813,888 763,838 757,825 751,769
		749,737 747,682 737,677 	"/>

		<polyline fill-rule="evenodd" clip-rule="evenodd" fill="none" stroke="#AAAAAA" stroke-width="5" stroke-linecap="round" stroke-linejoin="round" points="
		1009,988 967.28,1015.13 933.5,1117.5 	"/>

		<polyline fill-rule="evenodd" clip-rule="evenodd" fill="none" stroke="#AAAAAA" stroke-width="5" stroke-linecap="round" stroke-linejoin="round" points="
		0,984 9,974 15,957 15,950 15,939 26,909 34,901 45,897 60,878 58,867 63,856 64,844 61,825 64,818 61,776 104,769 	"/>

		<polyline fill-rule="evenodd" clip-rule="evenodd" fill="none" stroke="#AAAAAA" stroke-width="5" stroke-linecap="round" stroke-linejoin="round" points="
		917,866 845,900 797,919 781,915 742,923 725,923 667,930 	"/>

		<polyline fill-rule="evenodd" clip-rule="evenodd" fill="none" stroke="#AAAAAA" stroke-width="5" stroke-linecap="round" stroke-linejoin="round" points="
		-3,1076 93,1076 148,1056 248,1055 270,1047 333,1009 458,909 	"/>

		<polyline fill-rule="evenodd" clip-rule="evenodd" fill="none" stroke="#14A97E" stroke-width="10" stroke-linecap="round" stroke-linejoin="round" points="
		239,129 241,154 251,172 270,176 292,176 295,187 312,193 346,192 352,184 371,184 374,237 377,272 391,327 401,414 422,418
		449,416 472,411 530,406 539,414 542,677 560,703 535,725 530,810 	"/>
</g>
<g id="层_1" display="none">

		<polyline display="inline" fill-rule="evenodd" clip-rule="evenodd" fill="none" stroke="#0096C0" stroke-width="5" stroke-linecap="round" stroke-linejoin="round" points="
		797,623.5 797,362.5 778,345.5 792,328.5 725,273.5 706,270.5 386.5,273 340,277.5 333,279.5 299,282.5 	"/>
</g>
</svg>
